<svg width="47" height="14" viewBox="0 0 47 14" fill="none" xmlns="http://www.w3.org/2000/svg">
<path d="M7.3799 0.390234H9.8459V12.9902H7.3799V7.77023H2.6999V12.9902H0.215899V0.390234H2.6999V5.39423H7.3799V0.390234ZM19.7466 11.8742C18.8226 12.7862 17.6946 13.2422 16.3626 13.2422C15.0306 13.2422 13.9026 12.7862 12.9786 11.8742C12.0666 10.9502 11.6106 9.82223 11.6106 8.49023C11.6106 7.15823 12.0666 6.03623 12.9786 5.12423C13.9026 4.20023 15.0306 3.73823 16.3626 3.73823C17.6946 3.73823 18.8226 4.20023 19.7466 5.12423C20.6706 6.03623 21.1326 7.15823 21.1326 8.49023C21.1326 9.82223 20.6706 10.9502 19.7466 11.8742ZM14.6166 10.2722C15.0846 10.7402 15.6666 10.9742 16.3626 10.9742C17.0586 10.9742 17.6406 10.7402 18.1086 10.2722C18.5766 9.80423 18.8106 9.21023 18.8106 8.49023C18.8106 7.77023 18.5766 7.17623 18.1086 6.70823C17.6406 6.24023 17.0586 6.00623 16.3626 6.00623C15.6666 6.00623 15.0846 6.24023 14.6166 6.70823C14.1606 7.17623 13.9326 7.77023 13.9326 8.49023C13.9326 9.21023 14.1606 9.80423 14.6166 10.2722ZM32.7201 3.73823C33.7521 3.73823 34.5741 4.07423 35.1861 4.74623C35.8101 5.41823 36.1221 6.31823 36.1221 7.44623V12.9902H33.8001V7.60823C33.8001 7.06823 33.6681 6.64823 33.4041 6.34823C33.1401 6.04823 32.7681 5.89823 32.2881 5.89823C31.7601 5.89823 31.3461 6.07223 31.0461 6.42023C30.7581 6.76823 30.6141 7.27223 30.6141 7.93223V12.9902H28.2921V7.60823C28.2921 7.06823 28.1601 6.64823 27.8961 6.34823C27.6321 6.04823 27.2601 5.89823 26.7801 5.89823C26.2641 5.89823 25.8501 6.07223 25.5381 6.42023C25.2381 6.76823 25.0881 7.27223 25.0881 7.93223V12.9902H22.7661V3.99023H25.0881V4.94423C25.6281 4.14023 26.4621 3.73823 27.5901 3.73823C28.6941 3.73823 29.5101 4.17023 30.0381 5.03423C30.6381 4.17023 31.5321 3.73823 32.7201 3.73823ZM40.0562 9.44423C40.3682 10.5722 41.2142 11.1362 42.5942 11.1362C43.4822 11.1362 44.1542 10.8362 44.6102 10.2362L46.4822 11.3162C45.5942 12.6002 44.2862 13.2422 42.5582 13.2422C41.0702 13.2422 39.8762 12.7922 38.9762 11.8922C38.0762 10.9922 37.6262 9.85823 37.6262 8.49023C37.6262 7.13423 38.0702 6.00623 38.9582 5.10623C39.8462 4.19423 40.9862 3.73823 42.3782 3.73823C43.6982 3.73823 44.7842 4.19423 45.6362 5.10623C46.5002 6.01823 46.9322 7.14623 46.9322 8.49023C46.9322 8.79023 46.9022 9.10823 46.8422 9.44423H40.0562ZM40.0202 7.64423H44.6102C44.4782 7.03223 44.2022 6.57623 43.7822 6.27623C43.3742 5.97623 42.9062 5.82623 42.3782 5.82623C41.7542 5.82623 41.2382 5.98823 40.8302 6.31223C40.4222 6.62423 40.1522 7.06823 40.0202 7.64423Z" fill="#070707"/>
</svg>
